<svg width="1920" height="1080" viewBox="0 0 1920 1080" fill="none" xmlns="http://www.w3.org/2000/svg">
  <defs>
    <radialGradient id="redGlow1" cx="50%" cy="50%" r="50%">
      <stop offset="0%" style="stop-color:#ff0000;stop-opacity:0.3" />
      <stop offset="100%" style="stop-color:#000000;stop-opacity:1" />
    </radialGradient>
    <radialGradient id="redGlow2" cx="30%" cy="70%" r="40%">
      <stop offset="0%" style="stop-color:#cc0000;stop-opacity:0.2" />
      <stop offset="100%" style="stop-color:#000000;stop-opacity:1" />
    </radialGradient>
  </defs>
  
  <!-- Base black background -->
  <rect width="1920" height="1080" fill="#000000"/>
  
  <!-- Red glowing effects -->
  <ellipse cx="400" cy="300" rx="300" ry="200" fill="url(#redGlow1)" opacity="0.4"/>
  <ellipse cx="1500" cy="700" rx="250" ry="180" fill="url(#redGlow2)" opacity="0.3"/>
  
  <!-- Curved red lines -->
  <path d="M 0 150 Q 400 80 800 250 T 1600 200 L 1920 230 L 1920 0 L 0 0 Z" fill="none" stroke="#ff0000" stroke-width="2" opacity="0.6"/>
  <path d="M 0 300 Q 600 220 1200 400 T 1920 350" fill="none" stroke="#cc0000" stroke-width="1.5" opacity="0.4"/>
  <path d="M 0 450 Q 300 380 600 550 Q 900 750 1200 550 Q 1500 380 1920 500" fill="none" stroke="#ff3333" stroke-width="1" opacity="0.3"/>
  
  <!-- Additional curved elements -->
  <path d="M 200 0 Q 400 200 600 100 Q 800 0 1000 150 Q 1200 300 1400 100 Q 1600 50 1920 80 L 1920 0 Z" fill="#330000" opacity="0.2"/>
  <path d="M 0 800 Q 300 700 600 900 Q 900 1050 1200 900 Q 1500 700 1920 850 L 1920 1080 L 0 1080 Z" fill="#220000" opacity="0.3"/>
  
  <!-- Bottom thin red line -->
  <path d="M 0 900 Q 480 850 960 920 Q 1440 980 1920 950" fill="none" stroke="#ff0000" stroke-width="1" opacity="0.5"/>
  

</svg>